<svg width="1924" height="1924" viewBox="0 0 1924 1924" fill="none" xmlns="http://www.w3.org/2000/svg">
<rect width="74.4821" height="49.6547" rx="3" transform="matrix(0.715041 0.699082 0.699082 -0.715041 622.291 886.828)" fill="black"/>
<path d="M903.07 1240.54L675.985 1018.52C668.285 1010.99 668.145 998.645 675.674 990.945L826.223 836.959C833.752 829.258 846.098 829.118 853.799 836.647L1080.88 1058.66C1088.58 1066.19 1088.72 1078.54 1081.19 1086.24L930.646 1240.23C923.117 1247.93 910.771 1248.07 903.07 1240.54Z" fill="#FFFFFA" stroke="black" stroke-width="9"/>
<rect x="-6.36356" y="0.0718175" width="704.166" height="417.921" rx="12.5" transform="matrix(0.715041 0.699082 0.699082 -0.715041 593.402 830.257)" fill="#FFFFFA" stroke="black" stroke-width="9"/>
<path d="M1103.11 1050.95C1166.5 986.112 1165.33 882.166 1100.49 818.777C1035.66 755.388 931.712 756.562 868.324 821.397C804.935 886.233 806.108 990.179 870.944 1053.57C935.78 1116.96 1039.73 1115.78 1103.11 1050.95Z" stroke="black" stroke-width="9"/>
<path d="M1073.87 1022.36C1121.47 973.673 1120.59 895.617 1071.91 848.016C1023.22 800.416 945.163 801.297 897.562 849.984C849.962 898.671 850.843 976.728 899.53 1024.33C948.217 1071.93 1026.27 1071.05 1073.87 1022.36Z" stroke="black" stroke-width="9"/>
<path d="M919.847 864.622C880.377 904.994 879.471 968.119 917.824 1005.62" stroke="black" stroke-width="9"/>
<rect width="322.756" height="12.4137" transform="matrix(0.715041 0.699082 0.699082 -0.715041 719.733 964.734)" fill="#FFFFFA"/>
<rect width="122.676" height="40.8921" rx="5" transform="matrix(0.715041 0.699082 0.699082 -0.715041 1003.03 1189)" fill="url(#paint0_linear)"/>
<circle r="24.8274" transform="matrix(0.715041 0.699082 0.699082 -0.715041 723.251 1197.32)" fill="black"/>
<circle r="24.8274" transform="matrix(0.715041 0.699082 0.699082 -0.715041 845.299 344.443)" fill="black"/>
<circle r="24.8274" transform="matrix(0.715041 0.699082 0.699082 -0.715041 726.778 732.029)" fill="black"/>
<circle r="24.8274" transform="matrix(0.715041 0.699082 0.699082 -0.715041 1206.1 1200.65)" fill="black"/>
<circle r="24.8274" transform="matrix(0.715041 0.699082 0.699082 -0.715041 1078.7 1579.56)" fill="black"/>
<circle r="24.8274" transform="matrix(0.715041 0.699082 0.699082 -0.715041 1659.74 949.737)" fill="black"/>
<circle r="24.8274" transform="matrix(0.715041 0.699082 0.699082 -0.715041 273.334 1000.5)" fill="black"/>
<path d="M1655.83 954.17C1655.45 921.12 1637.09 888.92 1602.18 858.932C1567.28 828.954 1516.53 801.835 1453.3 779.14C1326.89 733.773 1152.15 706.651 959.142 708.829C766.13 711.007 592.052 742.066 466.697 790.275C403.991 814.39 353.868 842.649 319.653 873.406C285.426 904.174 267.797 936.781 268.17 969.83C268.543 1002.88 286.904 1035.08 321.817 1065.07C356.716 1095.05 407.465 1122.17 470.699 1144.86C597.109 1190.23 771.845 1217.35 964.856 1215.17C1157.87 1212.99 1331.95 1181.93 1457.3 1133.73C1520.01 1109.61 1570.13 1081.35 1604.34 1050.59C1638.57 1019.83 1656.2 987.219 1655.83 954.17Z" stroke="black" stroke-width="15"/>
<path d="M969.831 1655.83C1002.88 1655.46 1035.08 1637.1 1065.07 1602.18C1095.05 1567.28 1122.17 1516.53 1144.86 1453.3C1190.23 1326.89 1217.35 1152.15 1215.17 959.143C1212.99 766.131 1181.94 592.053 1133.73 466.698C1109.61 403.992 1081.35 353.869 1050.6 319.654C1019.83 285.427 987.22 267.798 954.171 268.171C921.121 268.544 888.921 286.905 858.933 321.817C828.955 356.717 801.835 407.466 779.141 470.7C733.774 597.11 706.652 771.846 708.83 964.857C711.008 1157.87 742.067 1331.95 790.276 1457.3C814.391 1520.01 842.65 1570.13 873.407 1604.35C904.175 1638.57 936.782 1656.2 969.831 1655.83Z" stroke="black" stroke-width="15"/>
<rect width="186.205" height="223.446" transform="matrix(0.715041 0.699082 0.699082 -0.715041 656.016 763.551)" fill="white"/>
<rect width="186.205" height="223.446" transform="matrix(0.715041 0.699082 0.699082 -0.715041 656.016 763.551)" fill="white"/>
<rect width="186.205" height="223.446" transform="matrix(0.715041 0.699082 0.699082 -0.715041 656.016 763.551)" fill="white"/>
<rect width="186.205" height="223.446" transform="matrix(0.715041 0.699082 0.699082 -0.715041 656.016 763.551)" fill="white"/>
<rect width="186.205" height="223.446" transform="matrix(0.715041 0.699082 0.699082 -0.715041 656.016 763.551)" fill="white"/>
<rect width="186.205" height="223.446" transform="matrix(0.715041 0.699082 0.699082 -0.715041 656.016 763.551)" fill="white"/>
<path d="M883.5 715.5L1099.12 745.383L986.815 635.587L883.5 715.5Z" fill="white"/>
<path d="M670.717 899.45L747.515 974.534L721.696 749.642L670.717 899.45Z" fill="white"/>
<defs>
<linearGradient id="paint0_linear" x1="61.3382" y1="0" x2="61.3382" y2="40.8921" gradientUnits="userSpaceOnUse">
<stop stop-color="#003EDE"/>
<stop offset="1" stop-color="#42FFD2"/>
</linearGradient>
</defs>
</svg>
